<?xml version="1.0" encoding="utf-8"?>
<!-- Generator: Adobe Illustrator 16.0.0, SVG Export Plug-In . SVG Version: 6.00 Build 0)  -->
<!DOCTYPE svg PUBLIC "-//W3C//DTD SVG 1.1//EN" "http://www.w3.org/Graphics/SVG/1.1/DTD/svg11.dtd">
<svg version="1.1" id="Layer_2" xmlns="http://www.w3.org/2000/svg" xmlns:xlink="http://www.w3.org/1999/xlink" x="0px" y="0px"
	 width="42px" height="42px" viewBox="0 0 42 42" enable-background="new 0 0 42 42" xml:space="preserve">
<g>
	<path fill="#191F34" d="M22.815,21.363v2.903h-3.267v-2.903H6.119v9.675c0,1.071,0.978,1.939,2.049,1.939h25.826
		c1.071,0,1.889-0.868,1.889-1.939v-9.675H22.815z"/>
	<path fill="#191F34" d="M35.882,19.912v-4.397c0-1.071-0.817-1.773-1.889-1.773h-6.527c-0.021-0.363-0.128-1.348-0.68-2.315
		c-0.629-1.099-1.946-2.403-4.655-2.403h-2.049c-2.708,0-4.025,1.301-4.653,2.393c-0.598,1.039-0.675,1.962-0.685,2.326H8.167
		c-1.071,0-2.049,0.702-2.049,1.773v4.397H35.882z M20.081,10.837h2.05c3.109,0,3.479,2.178,3.522,2.904h-9.097
		C16.593,13.015,16.935,10.837,20.081,10.837z"/>
</g>
</svg>
