<?xml version="1.0" encoding="utf-8"?>
<!-- Generator: Adobe Illustrator 16.0.0, SVG Export Plug-In . SVG Version: 6.00 Build 0)  -->
<!DOCTYPE svg PUBLIC "-//W3C//DTD SVG 1.1//EN" "http://www.w3.org/Graphics/SVG/1.1/DTD/svg11.dtd">
<svg version="1.1" id="Layer_2" xmlns="http://www.w3.org/2000/svg" xmlns:xlink="http://www.w3.org/1999/xlink" x="0px" y="0px"
	 width="42px" height="42px" viewBox="0 0 42 42" enable-background="new 0 0 42 42" xml:space="preserve">
<g id="medal">
	<path fill="#191F34" d="M17.565,22.4L10.615,7.497h1.401l6.709,14.388C18.32,22.021,17.933,22.195,17.565,22.4z M19.176,21.748
		l0.642-1.376L13.813,7.497h-1.401l6.659,14.281C19.106,21.768,19.141,21.758,19.176,21.748z M20.801,18.261L15.782,7.497h-1.573
		l5.806,12.451L20.801,18.261z M23.26,21.918c0.402,0.144,0.787,0.323,1.15,0.535l6.975-14.957h-1.4L23.26,21.918z M22.915,21.806
		l6.673-14.309h-1.4l-6.555,14.056C22.073,21.596,22.502,21.684,22.915,21.806z M20.943,21.519c0.103,0,0.204,0.004,0.305,0.007
		L27.79,7.497h-1.572l-6.599,14.15C20.048,21.563,20.49,21.519,20.943,21.519z M14.63,28.443c0,3.486,2.826,6.313,6.313,6.313
		c3.486,0,6.313-2.826,6.313-6.313c0-3.485-2.826-6.313-6.313-6.313C17.457,22.131,14.63,24.958,14.63,28.443z"/>
</g>
</svg>
