<?xml version="1.0" encoding="utf-8"?>
<!-- Generator: Adobe Illustrator 16.0.0, SVG Export Plug-In . SVG Version: 6.00 Build 0)  -->
<!DOCTYPE svg PUBLIC "-//W3C//DTD SVG 1.1//EN" "http://www.w3.org/Graphics/SVG/1.1/DTD/svg11.dtd">
<svg version="1.1" id="Layer_2" xmlns="http://www.w3.org/2000/svg" xmlns:xlink="http://www.w3.org/1999/xlink" x="0px" y="0px"
	 width="42px" height="42px" viewBox="0 0 42 42" enable-background="new 0 0 42 42" xml:space="preserve">
<g>
	<path fill="#191F34" d="M30.25,19.871c0.073,0,0.146,0.009,0.218,0.012V7.875c0-0.312-0.253-0.564-0.564-0.564H9.876
		c-0.312,0-0.565,0.252-0.565,0.564v26.25c0,0.312,0.253,0.563,0.565,0.563h20.027c0.312,0,0.564-0.252,0.564-0.563v-0.347
		c-0.072,0.002-0.145,0.011-0.218,0.011c-3.861,0-7.002-3.122-7.002-6.958C23.248,22.993,26.389,19.871,30.25,19.871z
		 M22.061,11.625h4.632c0.312,0,0.564,0.252,0.564,0.564c0,0.312-0.253,0.564-0.564,0.564h-4.632c-0.313,0-0.565-0.252-0.565-0.564
		C21.495,11.877,21.748,11.625,22.061,11.625z M22.061,15.149h4.632c0.312,0,0.564,0.252,0.564,0.565
		c0,0.312-0.253,0.564-0.564,0.564h-4.632c-0.313,0-0.565-0.252-0.565-0.564C21.495,15.401,21.748,15.149,22.061,15.149z
		 M12.521,12.19c0-0.312,0.253-0.564,0.565-0.564h5.295c0.312,0,0.565,0.252,0.565,0.564v7.047c0,0.312-0.252,0.564-0.565,0.564
		h-5.295c-0.312,0-0.565-0.252-0.565-0.564V12.19z M21.746,30.375h-8.661c-0.312,0-0.565-0.252-0.565-0.563
		c0-0.313,0.253-0.564,0.565-0.564h8.661c0.312,0,0.564,0.252,0.564,0.564C22.311,30.123,22.058,30.375,21.746,30.375z
		 M21.746,26.853h-8.661c-0.312,0-0.565-0.253-0.565-0.564s0.253-0.564,0.565-0.564h8.661c0.312,0,0.564,0.253,0.564,0.564
		S22.058,26.853,21.746,26.853z M21.746,23.326h-8.661c-0.312,0-0.565-0.252-0.565-0.564c0-0.312,0.253-0.563,0.565-0.563h8.661
		c0.312,0,0.564,0.252,0.564,0.563C22.311,23.074,22.058,23.326,21.746,23.326z M22.061,19.803c-0.313,0-0.565-0.252-0.565-0.564
		s0.253-0.565,0.565-0.565h4.632c0.312,0,0.564,0.253,0.564,0.565s-0.253,0.564-0.564,0.564H22.061z"/>
	<path fill="#191F34" d="M30.25,20.435c-3.55,0-6.438,2.869-6.438,6.395s2.889,6.395,6.438,6.395s6.439-2.868,6.439-6.394
		C36.689,23.304,33.8,20.435,30.25,20.435z M34.256,25.074l-4.921,4.357c-0.104,0.093-0.237,0.142-0.374,0.142
		c-0.016,0-0.033,0-0.049-0.002c-0.154-0.013-0.296-0.089-0.392-0.21l-2.342-2.936c-0.195-0.243-0.155-0.599,0.089-0.793
		c0.243-0.195,0.599-0.155,0.794,0.089l1.97,2.47l4.478-3.964c0.233-0.205,0.589-0.184,0.796,0.049S34.49,24.866,34.256,25.074z"/>
</g>
</svg>
