<?xml version="1.0" encoding="utf-8"?>
<!-- Generator: Adobe Illustrator 16.0.0, SVG Export Plug-In . SVG Version: 6.00 Build 0)  -->
<!DOCTYPE svg PUBLIC "-//W3C//DTD SVG 1.1//EN" "http://www.w3.org/Graphics/SVG/1.1/DTD/svg11.dtd">
<svg version="1.1" id="Ebene_1" xmlns="http://www.w3.org/2000/svg" xmlns:xlink="http://www.w3.org/1999/xlink" x="0px" y="0px"
	 width="47.936px" height="47.934px" viewBox="0 0 47.936 47.934" enable-background="new 0 0 47.936 47.934" xml:space="preserve">
<path fill="#002E3F" d="M26.939,10.401c-0.579-0.579-1.517-0.579-2.096,0c-0.578,0.579-0.578,1.517,0,2.095l10.181,10.18h-25.5
	c-0.817,0-1.481,0.664-1.481,1.481c0,0.818,0.664,1.48,1.481,1.48h25.12l-9.801,9.803c-0.578,0.578-0.578,1.516,0,2.096
	c0.29,0.289,0.668,0.432,1.048,0.432s0.758-0.143,1.048-0.432l12.521-12.521c0.578-0.578,0.578-1.516,0-2.095L26.939,10.401z"/>
</svg>
